<?xml version="1.0" encoding="UTF-8"?>
<svg version="1.1" baseProfile="tiny" xmlns="http://www.w3.org/2000/svg" width="100" height="100">
<rect shape-rendering="optimizeSpeed"  x="0" y="0" width="100" height="100" fill="white" />
<rect shape-rendering="optimizeSpeed"  x="6" y="6" width="3" height="3" fill="black" />
<rect shape-rendering="optimizeSpeed"  x="9" y="6" width="3" height="3" fill="black" />
<rect shape-rendering="optimizeSpeed"  x="12" y="6" width="3" height="3" fill="black" />
<rect shape-rendering="optimizeSpeed"  x="15" y="6" width="3" height="3" fill="black" />
<rect shape-rendering="optimizeSpeed"  x="18" y="6" width="3" height="3" fill="black" />
<rect shape-rendering="optimizeSpeed"  x="21" y="6" width="3" height="3" fill="black" />
<rect shape-rendering="optimizeSpeed"  x="24" y="6" width="3" height="3" fill="black" />
<rect shape-rendering="optimizeSpeed"  x="30" y="6" width="3" height="3" fill="black" />
<rect shape-rendering="optimizeSpeed"  x="33" y="6" width="3" height="3" fill="black" />
<rect shape-rendering="optimizeSpeed"  x="45" y="6" width="3" height="3" fill="black" />
<rect shape-rendering="optimizeSpeed"  x="54" y="6" width="3" height="3" fill="black" />
<rect shape-rendering="optimizeSpeed"  x="57" y="6" width="3" height="3" fill="black" />
<rect shape-rendering="optimizeSpeed"  x="60" y="6" width="3" height="3" fill="black" />
<rect shape-rendering="optimizeSpeed"  x="63" y="6" width="3" height="3" fill="black" />
<rect shape-rendering="optimizeSpeed"  x="66" y="6" width="3" height="3" fill="black" />
<rect shape-rendering="optimizeSpeed"  x="72" y="6" width="3" height="3" fill="black" />
<rect shape-rendering="optimizeSpeed"  x="75" y="6" width="3" height="3" fill="black" />
<rect shape-rendering="optimizeSpeed"  x="78" y="6" width="3" height="3" fill="black" />
<rect shape-rendering="optimizeSpeed"  x="81" y="6" width="3" height="3" fill="black" />
<rect shape-rendering="optimizeSpeed"  x="84" y="6" width="3" height="3" fill="black" />
<rect shape-rendering="optimizeSpeed"  x="87" y="6" width="3" height="3" fill="black" />
<rect shape-rendering="optimizeSpeed"  x="90" y="6" width="3" height="3" fill="black" />
<rect shape-rendering="optimizeSpeed"  x="6" y="9" width="3" height="3" fill="black" />
<rect shape-rendering="optimizeSpeed"  x="24" y="9" width="3" height="3" fill="black" />
<rect shape-rendering="optimizeSpeed"  x="54" y="9" width="3" height="3" fill="black" />
<rect shape-rendering="optimizeSpeed"  x="57" y="9" width="3" height="3" fill="black" />
<rect shape-rendering="optimizeSpeed"  x="72" y="9" width="3" height="3" fill="black" />
<rect shape-rendering="optimizeSpeed"  x="90" y="9" width="3" height="3" fill="black" />
<rect shape-rendering="optimizeSpeed"  x="6" y="12" width="3" height="3" fill="black" />
<rect shape-rendering="optimizeSpeed"  x="12" y="12" width="3" height="3" fill="black" />
<rect shape-rendering="optimizeSpeed"  x="15" y="12" width="3" height="3" fill="black" />
<rect shape-rendering="optimizeSpeed"  x="18" y="12" width="3" height="3" fill="black" />
<rect shape-rendering="optimizeSpeed"  x="24" y="12" width="3" height="3" fill="black" />
<rect shape-rendering="optimizeSpeed"  x="30" y="12" width="3" height="3" fill="black" />
<rect shape-rendering="optimizeSpeed"  x="39" y="12" width="3" height="3" fill="black" />
<rect shape-rendering="optimizeSpeed"  x="42" y="12" width="3" height="3" fill="black" />
<rect shape-rendering="optimizeSpeed"  x="45" y="12" width="3" height="3" fill="black" />
<rect shape-rendering="optimizeSpeed"  x="51" y="12" width="3" height="3" fill="black" />
<rect shape-rendering="optimizeSpeed"  x="60" y="12" width="3" height="3" fill="black" />
<rect shape-rendering="optimizeSpeed"  x="66" y="12" width="3" height="3" fill="black" />
<rect shape-rendering="optimizeSpeed"  x="72" y="12" width="3" height="3" fill="black" />
<rect shape-rendering="optimizeSpeed"  x="78" y="12" width="3" height="3" fill="black" />
<rect shape-rendering="optimizeSpeed"  x="81" y="12" width="3" height="3" fill="black" />
<rect shape-rendering="optimizeSpeed"  x="84" y="12" width="3" height="3" fill="black" />
<rect shape-rendering="optimizeSpeed"  x="90" y="12" width="3" height="3" fill="black" />
<rect shape-rendering="optimizeSpeed"  x="6" y="15" width="3" height="3" fill="black" />
<rect shape-rendering="optimizeSpeed"  x="12" y="15" width="3" height="3" fill="black" />
<rect shape-rendering="optimizeSpeed"  x="15" y="15" width="3" height="3" fill="black" />
<rect shape-rendering="optimizeSpeed"  x="18" y="15" width="3" height="3" fill="black" />
<rect shape-rendering="optimizeSpeed"  x="24" y="15" width="3" height="3" fill="black" />
<rect shape-rendering="optimizeSpeed"  x="30" y="15" width="3" height="3" fill="black" />
<rect shape-rendering="optimizeSpeed"  x="33" y="15" width="3" height="3" fill="black" />
<rect shape-rendering="optimizeSpeed"  x="39" y="15" width="3" height="3" fill="black" />
<rect shape-rendering="optimizeSpeed"  x="45" y="15" width="3" height="3" fill="black" />
<rect shape-rendering="optimizeSpeed"  x="48" y="15" width="3" height="3" fill="black" />
<rect shape-rendering="optimizeSpeed"  x="57" y="15" width="3" height="3" fill="black" />
<rect shape-rendering="optimizeSpeed"  x="72" y="15" width="3" height="3" fill="black" />
<rect shape-rendering="optimizeSpeed"  x="78" y="15" width="3" height="3" fill="black" />
<rect shape-rendering="optimizeSpeed"  x="81" y="15" width="3" height="3" fill="black" />
<rect shape-rendering="optimizeSpeed"  x="84" y="15" width="3" height="3" fill="black" />
<rect shape-rendering="optimizeSpeed"  x="90" y="15" width="3" height="3" fill="black" />
<rect shape-rendering="optimizeSpeed"  x="6" y="18" width="3" height="3" fill="black" />
<rect shape-rendering="optimizeSpeed"  x="12" y="18" width="3" height="3" fill="black" />
<rect shape-rendering="optimizeSpeed"  x="15" y="18" width="3" height="3" fill="black" />
<rect shape-rendering="optimizeSpeed"  x="18" y="18" width="3" height="3" fill="black" />
<rect shape-rendering="optimizeSpeed"  x="24" y="18" width="3" height="3" fill="black" />
<rect shape-rendering="optimizeSpeed"  x="30" y="18" width="3" height="3" fill="black" />
<rect shape-rendering="optimizeSpeed"  x="33" y="18" width="3" height="3" fill="black" />
<rect shape-rendering="optimizeSpeed"  x="36" y="18" width="3" height="3" fill="black" />
<rect shape-rendering="optimizeSpeed"  x="39" y="18" width="3" height="3" fill="black" />
<rect shape-rendering="optimizeSpeed"  x="45" y="18" width="3" height="3" fill="black" />
<rect shape-rendering="optimizeSpeed"  x="48" y="18" width="3" height="3" fill="black" />
<rect shape-rendering="optimizeSpeed"  x="51" y="18" width="3" height="3" fill="black" />
<rect shape-rendering="optimizeSpeed"  x="57" y="18" width="3" height="3" fill="black" />
<rect shape-rendering="optimizeSpeed"  x="60" y="18" width="3" height="3" fill="black" />
<rect shape-rendering="optimizeSpeed"  x="63" y="18" width="3" height="3" fill="black" />
<rect shape-rendering="optimizeSpeed"  x="72" y="18" width="3" height="3" fill="black" />
<rect shape-rendering="optimizeSpeed"  x="78" y="18" width="3" height="3" fill="black" />
<rect shape-rendering="optimizeSpeed"  x="81" y="18" width="3" height="3" fill="black" />
<rect shape-rendering="optimizeSpeed"  x="84" y="18" width="3" height="3" fill="black" />
<rect shape-rendering="optimizeSpeed"  x="90" y="18" width="3" height="3" fill="black" />
<rect shape-rendering="optimizeSpeed"  x="6" y="21" width="3" height="3" fill="black" />
<rect shape-rendering="optimizeSpeed"  x="24" y="21" width="3" height="3" fill="black" />
<rect shape-rendering="optimizeSpeed"  x="33" y="21" width="3" height="3" fill="black" />
<rect shape-rendering="optimizeSpeed"  x="42" y="21" width="3" height="3" fill="black" />
<rect shape-rendering="optimizeSpeed"  x="48" y="21" width="3" height="3" fill="black" />
<rect shape-rendering="optimizeSpeed"  x="60" y="21" width="3" height="3" fill="black" />
<rect shape-rendering="optimizeSpeed"  x="63" y="21" width="3" height="3" fill="black" />
<rect shape-rendering="optimizeSpeed"  x="72" y="21" width="3" height="3" fill="black" />
<rect shape-rendering="optimizeSpeed"  x="90" y="21" width="3" height="3" fill="black" />
<rect shape-rendering="optimizeSpeed"  x="6" y="24" width="3" height="3" fill="black" />
<rect shape-rendering="optimizeSpeed"  x="9" y="24" width="3" height="3" fill="black" />
<rect shape-rendering="optimizeSpeed"  x="12" y="24" width="3" height="3" fill="black" />
<rect shape-rendering="optimizeSpeed"  x="15" y="24" width="3" height="3" fill="black" />
<rect shape-rendering="optimizeSpeed"  x="18" y="24" width="3" height="3" fill="black" />
<rect shape-rendering="optimizeSpeed"  x="21" y="24" width="3" height="3" fill="black" />
<rect shape-rendering="optimizeSpeed"  x="24" y="24" width="3" height="3" fill="black" />
<rect shape-rendering="optimizeSpeed"  x="30" y="24" width="3" height="3" fill="black" />
<rect shape-rendering="optimizeSpeed"  x="36" y="24" width="3" height="3" fill="black" />
<rect shape-rendering="optimizeSpeed"  x="42" y="24" width="3" height="3" fill="black" />
<rect shape-rendering="optimizeSpeed"  x="48" y="24" width="3" height="3" fill="black" />
<rect shape-rendering="optimizeSpeed"  x="54" y="24" width="3" height="3" fill="black" />
<rect shape-rendering="optimizeSpeed"  x="60" y="24" width="3" height="3" fill="black" />
<rect shape-rendering="optimizeSpeed"  x="66" y="24" width="3" height="3" fill="black" />
<rect shape-rendering="optimizeSpeed"  x="72" y="24" width="3" height="3" fill="black" />
<rect shape-rendering="optimizeSpeed"  x="75" y="24" width="3" height="3" fill="black" />
<rect shape-rendering="optimizeSpeed"  x="78" y="24" width="3" height="3" fill="black" />
<rect shape-rendering="optimizeSpeed"  x="81" y="24" width="3" height="3" fill="black" />
<rect shape-rendering="optimizeSpeed"  x="84" y="24" width="3" height="3" fill="black" />
<rect shape-rendering="optimizeSpeed"  x="87" y="24" width="3" height="3" fill="black" />
<rect shape-rendering="optimizeSpeed"  x="90" y="24" width="3" height="3" fill="black" />
<rect shape-rendering="optimizeSpeed"  x="33" y="27" width="3" height="3" fill="black" />
<rect shape-rendering="optimizeSpeed"  x="39" y="27" width="3" height="3" fill="black" />
<rect shape-rendering="optimizeSpeed"  x="51" y="27" width="3" height="3" fill="black" />
<rect shape-rendering="optimizeSpeed"  x="57" y="27" width="3" height="3" fill="black" />
<rect shape-rendering="optimizeSpeed"  x="63" y="27" width="3" height="3" fill="black" />
<rect shape-rendering="optimizeSpeed"  x="6" y="30" width="3" height="3" fill="black" />
<rect shape-rendering="optimizeSpeed"  x="9" y="30" width="3" height="3" fill="black" />
<rect shape-rendering="optimizeSpeed"  x="12" y="30" width="3" height="3" fill="black" />
<rect shape-rendering="optimizeSpeed"  x="15" y="30" width="3" height="3" fill="black" />
<rect shape-rendering="optimizeSpeed"  x="24" y="30" width="3" height="3" fill="black" />
<rect shape-rendering="optimizeSpeed"  x="30" y="30" width="3" height="3" fill="black" />
<rect shape-rendering="optimizeSpeed"  x="48" y="30" width="3" height="3" fill="black" />
<rect shape-rendering="optimizeSpeed"  x="51" y="30" width="3" height="3" fill="black" />
<rect shape-rendering="optimizeSpeed"  x="54" y="30" width="3" height="3" fill="black" />
<rect shape-rendering="optimizeSpeed"  x="57" y="30" width="3" height="3" fill="black" />
<rect shape-rendering="optimizeSpeed"  x="60" y="30" width="3" height="3" fill="black" />
<rect shape-rendering="optimizeSpeed"  x="69" y="30" width="3" height="3" fill="black" />
<rect shape-rendering="optimizeSpeed"  x="78" y="30" width="3" height="3" fill="black" />
<rect shape-rendering="optimizeSpeed"  x="81" y="30" width="3" height="3" fill="black" />
<rect shape-rendering="optimizeSpeed"  x="84" y="30" width="3" height="3" fill="black" />
<rect shape-rendering="optimizeSpeed"  x="90" y="30" width="3" height="3" fill="black" />
<rect shape-rendering="optimizeSpeed"  x="12" y="33" width="3" height="3" fill="black" />
<rect shape-rendering="optimizeSpeed"  x="18" y="33" width="3" height="3" fill="black" />
<rect shape-rendering="optimizeSpeed"  x="27" y="33" width="3" height="3" fill="black" />
<rect shape-rendering="optimizeSpeed"  x="33" y="33" width="3" height="3" fill="black" />
<rect shape-rendering="optimizeSpeed"  x="45" y="33" width="3" height="3" fill="black" />
<rect shape-rendering="optimizeSpeed"  x="54" y="33" width="3" height="3" fill="black" />
<rect shape-rendering="optimizeSpeed"  x="57" y="33" width="3" height="3" fill="black" />
<rect shape-rendering="optimizeSpeed"  x="60" y="33" width="3" height="3" fill="black" />
<rect shape-rendering="optimizeSpeed"  x="63" y="33" width="3" height="3" fill="black" />
<rect shape-rendering="optimizeSpeed"  x="69" y="33" width="3" height="3" fill="black" />
<rect shape-rendering="optimizeSpeed"  x="72" y="33" width="3" height="3" fill="black" />
<rect shape-rendering="optimizeSpeed"  x="75" y="33" width="3" height="3" fill="black" />
<rect shape-rendering="optimizeSpeed"  x="78" y="33" width="3" height="3" fill="black" />
<rect shape-rendering="optimizeSpeed"  x="90" y="33" width="3" height="3" fill="black" />
<rect shape-rendering="optimizeSpeed"  x="6" y="36" width="3" height="3" fill="black" />
<rect shape-rendering="optimizeSpeed"  x="24" y="36" width="3" height="3" fill="black" />
<rect shape-rendering="optimizeSpeed"  x="27" y="36" width="3" height="3" fill="black" />
<rect shape-rendering="optimizeSpeed"  x="57" y="36" width="3" height="3" fill="black" />
<rect shape-rendering="optimizeSpeed"  x="66" y="36" width="3" height="3" fill="black" />
<rect shape-rendering="optimizeSpeed"  x="69" y="36" width="3" height="3" fill="black" />
<rect shape-rendering="optimizeSpeed"  x="78" y="36" width="3" height="3" fill="black" />
<rect shape-rendering="optimizeSpeed"  x="84" y="36" width="3" height="3" fill="black" />
<rect shape-rendering="optimizeSpeed"  x="87" y="36" width="3" height="3" fill="black" />
<rect shape-rendering="optimizeSpeed"  x="9" y="39" width="3" height="3" fill="black" />
<rect shape-rendering="optimizeSpeed"  x="12" y="39" width="3" height="3" fill="black" />
<rect shape-rendering="optimizeSpeed"  x="15" y="39" width="3" height="3" fill="black" />
<rect shape-rendering="optimizeSpeed"  x="39" y="39" width="3" height="3" fill="black" />
<rect shape-rendering="optimizeSpeed"  x="42" y="39" width="3" height="3" fill="black" />
<rect shape-rendering="optimizeSpeed"  x="45" y="39" width="3" height="3" fill="black" />
<rect shape-rendering="optimizeSpeed"  x="51" y="39" width="3" height="3" fill="black" />
<rect shape-rendering="optimizeSpeed"  x="63" y="39" width="3" height="3" fill="black" />
<rect shape-rendering="optimizeSpeed"  x="69" y="39" width="3" height="3" fill="black" />
<rect shape-rendering="optimizeSpeed"  x="72" y="39" width="3" height="3" fill="black" />
<rect shape-rendering="optimizeSpeed"  x="90" y="39" width="3" height="3" fill="black" />
<rect shape-rendering="optimizeSpeed"  x="9" y="42" width="3" height="3" fill="black" />
<rect shape-rendering="optimizeSpeed"  x="15" y="42" width="3" height="3" fill="black" />
<rect shape-rendering="optimizeSpeed"  x="18" y="42" width="3" height="3" fill="black" />
<rect shape-rendering="optimizeSpeed"  x="24" y="42" width="3" height="3" fill="black" />
<rect shape-rendering="optimizeSpeed"  x="30" y="42" width="3" height="3" fill="black" />
<rect shape-rendering="optimizeSpeed"  x="33" y="42" width="3" height="3" fill="black" />
<rect shape-rendering="optimizeSpeed"  x="39" y="42" width="3" height="3" fill="black" />
<rect shape-rendering="optimizeSpeed"  x="45" y="42" width="3" height="3" fill="black" />
<rect shape-rendering="optimizeSpeed"  x="57" y="42" width="3" height="3" fill="black" />
<rect shape-rendering="optimizeSpeed"  x="63" y="42" width="3" height="3" fill="black" />
<rect shape-rendering="optimizeSpeed"  x="66" y="42" width="3" height="3" fill="black" />
<rect shape-rendering="optimizeSpeed"  x="75" y="42" width="3" height="3" fill="black" />
<rect shape-rendering="optimizeSpeed"  x="81" y="42" width="3" height="3" fill="black" />
<rect shape-rendering="optimizeSpeed"  x="84" y="42" width="3" height="3" fill="black" />
<rect shape-rendering="optimizeSpeed"  x="9" y="45" width="3" height="3" fill="black" />
<rect shape-rendering="optimizeSpeed"  x="12" y="45" width="3" height="3" fill="black" />
<rect shape-rendering="optimizeSpeed"  x="18" y="45" width="3" height="3" fill="black" />
<rect shape-rendering="optimizeSpeed"  x="30" y="45" width="3" height="3" fill="black" />
<rect shape-rendering="optimizeSpeed"  x="36" y="45" width="3" height="3" fill="black" />
<rect shape-rendering="optimizeSpeed"  x="39" y="45" width="3" height="3" fill="black" />
<rect shape-rendering="optimizeSpeed"  x="45" y="45" width="3" height="3" fill="black" />
<rect shape-rendering="optimizeSpeed"  x="48" y="45" width="3" height="3" fill="black" />
<rect shape-rendering="optimizeSpeed"  x="51" y="45" width="3" height="3" fill="black" />
<rect shape-rendering="optimizeSpeed"  x="54" y="45" width="3" height="3" fill="black" />
<rect shape-rendering="optimizeSpeed"  x="57" y="45" width="3" height="3" fill="black" />
<rect shape-rendering="optimizeSpeed"  x="60" y="45" width="3" height="3" fill="black" />
<rect shape-rendering="optimizeSpeed"  x="63" y="45" width="3" height="3" fill="black" />
<rect shape-rendering="optimizeSpeed"  x="72" y="45" width="3" height="3" fill="black" />
<rect shape-rendering="optimizeSpeed"  x="84" y="45" width="3" height="3" fill="black" />
<rect shape-rendering="optimizeSpeed"  x="87" y="45" width="3" height="3" fill="black" />
<rect shape-rendering="optimizeSpeed"  x="90" y="45" width="3" height="3" fill="black" />
<rect shape-rendering="optimizeSpeed"  x="21" y="48" width="3" height="3" fill="black" />
<rect shape-rendering="optimizeSpeed"  x="24" y="48" width="3" height="3" fill="black" />
<rect shape-rendering="optimizeSpeed"  x="27" y="48" width="3" height="3" fill="black" />
<rect shape-rendering="optimizeSpeed"  x="30" y="48" width="3" height="3" fill="black" />
<rect shape-rendering="optimizeSpeed"  x="33" y="48" width="3" height="3" fill="black" />
<rect shape-rendering="optimizeSpeed"  x="42" y="48" width="3" height="3" fill="black" />
<rect shape-rendering="optimizeSpeed"  x="48" y="48" width="3" height="3" fill="black" />
<rect shape-rendering="optimizeSpeed"  x="60" y="48" width="3" height="3" fill="black" />
<rect shape-rendering="optimizeSpeed"  x="63" y="48" width="3" height="3" fill="black" />
<rect shape-rendering="optimizeSpeed"  x="66" y="48" width="3" height="3" fill="black" />
<rect shape-rendering="optimizeSpeed"  x="72" y="48" width="3" height="3" fill="black" />
<rect shape-rendering="optimizeSpeed"  x="75" y="48" width="3" height="3" fill="black" />
<rect shape-rendering="optimizeSpeed"  x="84" y="48" width="3" height="3" fill="black" />
<rect shape-rendering="optimizeSpeed"  x="87" y="48" width="3" height="3" fill="black" />
<rect shape-rendering="optimizeSpeed"  x="90" y="48" width="3" height="3" fill="black" />
<rect shape-rendering="optimizeSpeed"  x="6" y="51" width="3" height="3" fill="black" />
<rect shape-rendering="optimizeSpeed"  x="9" y="51" width="3" height="3" fill="black" />
<rect shape-rendering="optimizeSpeed"  x="21" y="51" width="3" height="3" fill="black" />
<rect shape-rendering="optimizeSpeed"  x="27" y="51" width="3" height="3" fill="black" />
<rect shape-rendering="optimizeSpeed"  x="33" y="51" width="3" height="3" fill="black" />
<rect shape-rendering="optimizeSpeed"  x="42" y="51" width="3" height="3" fill="black" />
<rect shape-rendering="optimizeSpeed"  x="51" y="51" width="3" height="3" fill="black" />
<rect shape-rendering="optimizeSpeed"  x="66" y="51" width="3" height="3" fill="black" />
<rect shape-rendering="optimizeSpeed"  x="72" y="51" width="3" height="3" fill="black" />
<rect shape-rendering="optimizeSpeed"  x="75" y="51" width="3" height="3" fill="black" />
<rect shape-rendering="optimizeSpeed"  x="78" y="51" width="3" height="3" fill="black" />
<rect shape-rendering="optimizeSpeed"  x="87" y="51" width="3" height="3" fill="black" />
<rect shape-rendering="optimizeSpeed"  x="12" y="54" width="3" height="3" fill="black" />
<rect shape-rendering="optimizeSpeed"  x="15" y="54" width="3" height="3" fill="black" />
<rect shape-rendering="optimizeSpeed"  x="21" y="54" width="3" height="3" fill="black" />
<rect shape-rendering="optimizeSpeed"  x="24" y="54" width="3" height="3" fill="black" />
<rect shape-rendering="optimizeSpeed"  x="27" y="54" width="3" height="3" fill="black" />
<rect shape-rendering="optimizeSpeed"  x="33" y="54" width="3" height="3" fill="black" />
<rect shape-rendering="optimizeSpeed"  x="36" y="54" width="3" height="3" fill="black" />
<rect shape-rendering="optimizeSpeed"  x="39" y="54" width="3" height="3" fill="black" />
<rect shape-rendering="optimizeSpeed"  x="45" y="54" width="3" height="3" fill="black" />
<rect shape-rendering="optimizeSpeed"  x="51" y="54" width="3" height="3" fill="black" />
<rect shape-rendering="optimizeSpeed"  x="60" y="54" width="3" height="3" fill="black" />
<rect shape-rendering="optimizeSpeed"  x="69" y="54" width="3" height="3" fill="black" />
<rect shape-rendering="optimizeSpeed"  x="75" y="54" width="3" height="3" fill="black" />
<rect shape-rendering="optimizeSpeed"  x="78" y="54" width="3" height="3" fill="black" />
<rect shape-rendering="optimizeSpeed"  x="81" y="54" width="3" height="3" fill="black" />
<rect shape-rendering="optimizeSpeed"  x="87" y="54" width="3" height="3" fill="black" />
<rect shape-rendering="optimizeSpeed"  x="15" y="57" width="3" height="3" fill="black" />
<rect shape-rendering="optimizeSpeed"  x="18" y="57" width="3" height="3" fill="black" />
<rect shape-rendering="optimizeSpeed"  x="27" y="57" width="3" height="3" fill="black" />
<rect shape-rendering="optimizeSpeed"  x="42" y="57" width="3" height="3" fill="black" />
<rect shape-rendering="optimizeSpeed"  x="45" y="57" width="3" height="3" fill="black" />
<rect shape-rendering="optimizeSpeed"  x="48" y="57" width="3" height="3" fill="black" />
<rect shape-rendering="optimizeSpeed"  x="51" y="57" width="3" height="3" fill="black" />
<rect shape-rendering="optimizeSpeed"  x="66" y="57" width="3" height="3" fill="black" />
<rect shape-rendering="optimizeSpeed"  x="69" y="57" width="3" height="3" fill="black" />
<rect shape-rendering="optimizeSpeed"  x="75" y="57" width="3" height="3" fill="black" />
<rect shape-rendering="optimizeSpeed"  x="81" y="57" width="3" height="3" fill="black" />
<rect shape-rendering="optimizeSpeed"  x="84" y="57" width="3" height="3" fill="black" />
<rect shape-rendering="optimizeSpeed"  x="87" y="57" width="3" height="3" fill="black" />
<rect shape-rendering="optimizeSpeed"  x="6" y="60" width="3" height="3" fill="black" />
<rect shape-rendering="optimizeSpeed"  x="18" y="60" width="3" height="3" fill="black" />
<rect shape-rendering="optimizeSpeed"  x="21" y="60" width="3" height="3" fill="black" />
<rect shape-rendering="optimizeSpeed"  x="24" y="60" width="3" height="3" fill="black" />
<rect shape-rendering="optimizeSpeed"  x="27" y="60" width="3" height="3" fill="black" />
<rect shape-rendering="optimizeSpeed"  x="33" y="60" width="3" height="3" fill="black" />
<rect shape-rendering="optimizeSpeed"  x="39" y="60" width="3" height="3" fill="black" />
<rect shape-rendering="optimizeSpeed"  x="42" y="60" width="3" height="3" fill="black" />
<rect shape-rendering="optimizeSpeed"  x="45" y="60" width="3" height="3" fill="black" />
<rect shape-rendering="optimizeSpeed"  x="51" y="60" width="3" height="3" fill="black" />
<rect shape-rendering="optimizeSpeed"  x="57" y="60" width="3" height="3" fill="black" />
<rect shape-rendering="optimizeSpeed"  x="60" y="60" width="3" height="3" fill="black" />
<rect shape-rendering="optimizeSpeed"  x="78" y="60" width="3" height="3" fill="black" />
<rect shape-rendering="optimizeSpeed"  x="84" y="60" width="3" height="3" fill="black" />
<rect shape-rendering="optimizeSpeed"  x="18" y="63" width="3" height="3" fill="black" />
<rect shape-rendering="optimizeSpeed"  x="33" y="63" width="3" height="3" fill="black" />
<rect shape-rendering="optimizeSpeed"  x="36" y="63" width="3" height="3" fill="black" />
<rect shape-rendering="optimizeSpeed"  x="42" y="63" width="3" height="3" fill="black" />
<rect shape-rendering="optimizeSpeed"  x="54" y="63" width="3" height="3" fill="black" />
<rect shape-rendering="optimizeSpeed"  x="57" y="63" width="3" height="3" fill="black" />
<rect shape-rendering="optimizeSpeed"  x="69" y="63" width="3" height="3" fill="black" />
<rect shape-rendering="optimizeSpeed"  x="75" y="63" width="3" height="3" fill="black" />
<rect shape-rendering="optimizeSpeed"  x="78" y="63" width="3" height="3" fill="black" />
<rect shape-rendering="optimizeSpeed"  x="84" y="63" width="3" height="3" fill="black" />
<rect shape-rendering="optimizeSpeed"  x="9" y="66" width="3" height="3" fill="black" />
<rect shape-rendering="optimizeSpeed"  x="15" y="66" width="3" height="3" fill="black" />
<rect shape-rendering="optimizeSpeed"  x="18" y="66" width="3" height="3" fill="black" />
<rect shape-rendering="optimizeSpeed"  x="24" y="66" width="3" height="3" fill="black" />
<rect shape-rendering="optimizeSpeed"  x="27" y="66" width="3" height="3" fill="black" />
<rect shape-rendering="optimizeSpeed"  x="39" y="66" width="3" height="3" fill="black" />
<rect shape-rendering="optimizeSpeed"  x="42" y="66" width="3" height="3" fill="black" />
<rect shape-rendering="optimizeSpeed"  x="48" y="66" width="3" height="3" fill="black" />
<rect shape-rendering="optimizeSpeed"  x="51" y="66" width="3" height="3" fill="black" />
<rect shape-rendering="optimizeSpeed"  x="54" y="66" width="3" height="3" fill="black" />
<rect shape-rendering="optimizeSpeed"  x="57" y="66" width="3" height="3" fill="black" />
<rect shape-rendering="optimizeSpeed"  x="63" y="66" width="3" height="3" fill="black" />
<rect shape-rendering="optimizeSpeed"  x="66" y="66" width="3" height="3" fill="black" />
<rect shape-rendering="optimizeSpeed"  x="69" y="66" width="3" height="3" fill="black" />
<rect shape-rendering="optimizeSpeed"  x="72" y="66" width="3" height="3" fill="black" />
<rect shape-rendering="optimizeSpeed"  x="75" y="66" width="3" height="3" fill="black" />
<rect shape-rendering="optimizeSpeed"  x="78" y="66" width="3" height="3" fill="black" />
<rect shape-rendering="optimizeSpeed"  x="81" y="66" width="3" height="3" fill="black" />
<rect shape-rendering="optimizeSpeed"  x="84" y="66" width="3" height="3" fill="black" />
<rect shape-rendering="optimizeSpeed"  x="30" y="69" width="3" height="3" fill="black" />
<rect shape-rendering="optimizeSpeed"  x="42" y="69" width="3" height="3" fill="black" />
<rect shape-rendering="optimizeSpeed"  x="48" y="69" width="3" height="3" fill="black" />
<rect shape-rendering="optimizeSpeed"  x="54" y="69" width="3" height="3" fill="black" />
<rect shape-rendering="optimizeSpeed"  x="57" y="69" width="3" height="3" fill="black" />
<rect shape-rendering="optimizeSpeed"  x="60" y="69" width="3" height="3" fill="black" />
<rect shape-rendering="optimizeSpeed"  x="63" y="69" width="3" height="3" fill="black" />
<rect shape-rendering="optimizeSpeed"  x="66" y="69" width="3" height="3" fill="black" />
<rect shape-rendering="optimizeSpeed"  x="78" y="69" width="3" height="3" fill="black" />
<rect shape-rendering="optimizeSpeed"  x="81" y="69" width="3" height="3" fill="black" />
<rect shape-rendering="optimizeSpeed"  x="84" y="69" width="3" height="3" fill="black" />
<rect shape-rendering="optimizeSpeed"  x="87" y="69" width="3" height="3" fill="black" />
<rect shape-rendering="optimizeSpeed"  x="90" y="69" width="3" height="3" fill="black" />
<rect shape-rendering="optimizeSpeed"  x="6" y="72" width="3" height="3" fill="black" />
<rect shape-rendering="optimizeSpeed"  x="9" y="72" width="3" height="3" fill="black" />
<rect shape-rendering="optimizeSpeed"  x="12" y="72" width="3" height="3" fill="black" />
<rect shape-rendering="optimizeSpeed"  x="15" y="72" width="3" height="3" fill="black" />
<rect shape-rendering="optimizeSpeed"  x="18" y="72" width="3" height="3" fill="black" />
<rect shape-rendering="optimizeSpeed"  x="21" y="72" width="3" height="3" fill="black" />
<rect shape-rendering="optimizeSpeed"  x="24" y="72" width="3" height="3" fill="black" />
<rect shape-rendering="optimizeSpeed"  x="36" y="72" width="3" height="3" fill="black" />
<rect shape-rendering="optimizeSpeed"  x="39" y="72" width="3" height="3" fill="black" />
<rect shape-rendering="optimizeSpeed"  x="42" y="72" width="3" height="3" fill="black" />
<rect shape-rendering="optimizeSpeed"  x="45" y="72" width="3" height="3" fill="black" />
<rect shape-rendering="optimizeSpeed"  x="54" y="72" width="3" height="3" fill="black" />
<rect shape-rendering="optimizeSpeed"  x="60" y="72" width="3" height="3" fill="black" />
<rect shape-rendering="optimizeSpeed"  x="63" y="72" width="3" height="3" fill="black" />
<rect shape-rendering="optimizeSpeed"  x="66" y="72" width="3" height="3" fill="black" />
<rect shape-rendering="optimizeSpeed"  x="72" y="72" width="3" height="3" fill="black" />
<rect shape-rendering="optimizeSpeed"  x="78" y="72" width="3" height="3" fill="black" />
<rect shape-rendering="optimizeSpeed"  x="81" y="72" width="3" height="3" fill="black" />
<rect shape-rendering="optimizeSpeed"  x="87" y="72" width="3" height="3" fill="black" />
<rect shape-rendering="optimizeSpeed"  x="6" y="75" width="3" height="3" fill="black" />
<rect shape-rendering="optimizeSpeed"  x="24" y="75" width="3" height="3" fill="black" />
<rect shape-rendering="optimizeSpeed"  x="45" y="75" width="3" height="3" fill="black" />
<rect shape-rendering="optimizeSpeed"  x="51" y="75" width="3" height="3" fill="black" />
<rect shape-rendering="optimizeSpeed"  x="66" y="75" width="3" height="3" fill="black" />
<rect shape-rendering="optimizeSpeed"  x="78" y="75" width="3" height="3" fill="black" />
<rect shape-rendering="optimizeSpeed"  x="81" y="75" width="3" height="3" fill="black" />
<rect shape-rendering="optimizeSpeed"  x="87" y="75" width="3" height="3" fill="black" />
<rect shape-rendering="optimizeSpeed"  x="6" y="78" width="3" height="3" fill="black" />
<rect shape-rendering="optimizeSpeed"  x="12" y="78" width="3" height="3" fill="black" />
<rect shape-rendering="optimizeSpeed"  x="15" y="78" width="3" height="3" fill="black" />
<rect shape-rendering="optimizeSpeed"  x="18" y="78" width="3" height="3" fill="black" />
<rect shape-rendering="optimizeSpeed"  x="24" y="78" width="3" height="3" fill="black" />
<rect shape-rendering="optimizeSpeed"  x="33" y="78" width="3" height="3" fill="black" />
<rect shape-rendering="optimizeSpeed"  x="42" y="78" width="3" height="3" fill="black" />
<rect shape-rendering="optimizeSpeed"  x="45" y="78" width="3" height="3" fill="black" />
<rect shape-rendering="optimizeSpeed"  x="48" y="78" width="3" height="3" fill="black" />
<rect shape-rendering="optimizeSpeed"  x="57" y="78" width="3" height="3" fill="black" />
<rect shape-rendering="optimizeSpeed"  x="66" y="78" width="3" height="3" fill="black" />
<rect shape-rendering="optimizeSpeed"  x="69" y="78" width="3" height="3" fill="black" />
<rect shape-rendering="optimizeSpeed"  x="72" y="78" width="3" height="3" fill="black" />
<rect shape-rendering="optimizeSpeed"  x="75" y="78" width="3" height="3" fill="black" />
<rect shape-rendering="optimizeSpeed"  x="78" y="78" width="3" height="3" fill="black" />
<rect shape-rendering="optimizeSpeed"  x="84" y="78" width="3" height="3" fill="black" />
<rect shape-rendering="optimizeSpeed"  x="87" y="78" width="3" height="3" fill="black" />
<rect shape-rendering="optimizeSpeed"  x="90" y="78" width="3" height="3" fill="black" />
<rect shape-rendering="optimizeSpeed"  x="6" y="81" width="3" height="3" fill="black" />
<rect shape-rendering="optimizeSpeed"  x="12" y="81" width="3" height="3" fill="black" />
<rect shape-rendering="optimizeSpeed"  x="15" y="81" width="3" height="3" fill="black" />
<rect shape-rendering="optimizeSpeed"  x="18" y="81" width="3" height="3" fill="black" />
<rect shape-rendering="optimizeSpeed"  x="24" y="81" width="3" height="3" fill="black" />
<rect shape-rendering="optimizeSpeed"  x="30" y="81" width="3" height="3" fill="black" />
<rect shape-rendering="optimizeSpeed"  x="33" y="81" width="3" height="3" fill="black" />
<rect shape-rendering="optimizeSpeed"  x="36" y="81" width="3" height="3" fill="black" />
<rect shape-rendering="optimizeSpeed"  x="39" y="81" width="3" height="3" fill="black" />
<rect shape-rendering="optimizeSpeed"  x="42" y="81" width="3" height="3" fill="black" />
<rect shape-rendering="optimizeSpeed"  x="48" y="81" width="3" height="3" fill="black" />
<rect shape-rendering="optimizeSpeed"  x="51" y="81" width="3" height="3" fill="black" />
<rect shape-rendering="optimizeSpeed"  x="63" y="81" width="3" height="3" fill="black" />
<rect shape-rendering="optimizeSpeed"  x="66" y="81" width="3" height="3" fill="black" />
<rect shape-rendering="optimizeSpeed"  x="69" y="81" width="3" height="3" fill="black" />
<rect shape-rendering="optimizeSpeed"  x="75" y="81" width="3" height="3" fill="black" />
<rect shape-rendering="optimizeSpeed"  x="78" y="81" width="3" height="3" fill="black" />
<rect shape-rendering="optimizeSpeed"  x="81" y="81" width="3" height="3" fill="black" />
<rect shape-rendering="optimizeSpeed"  x="90" y="81" width="3" height="3" fill="black" />
<rect shape-rendering="optimizeSpeed"  x="6" y="84" width="3" height="3" fill="black" />
<rect shape-rendering="optimizeSpeed"  x="12" y="84" width="3" height="3" fill="black" />
<rect shape-rendering="optimizeSpeed"  x="15" y="84" width="3" height="3" fill="black" />
<rect shape-rendering="optimizeSpeed"  x="18" y="84" width="3" height="3" fill="black" />
<rect shape-rendering="optimizeSpeed"  x="24" y="84" width="3" height="3" fill="black" />
<rect shape-rendering="optimizeSpeed"  x="30" y="84" width="3" height="3" fill="black" />
<rect shape-rendering="optimizeSpeed"  x="33" y="84" width="3" height="3" fill="black" />
<rect shape-rendering="optimizeSpeed"  x="36" y="84" width="3" height="3" fill="black" />
<rect shape-rendering="optimizeSpeed"  x="39" y="84" width="3" height="3" fill="black" />
<rect shape-rendering="optimizeSpeed"  x="48" y="84" width="3" height="3" fill="black" />
<rect shape-rendering="optimizeSpeed"  x="69" y="84" width="3" height="3" fill="black" />
<rect shape-rendering="optimizeSpeed"  x="75" y="84" width="3" height="3" fill="black" />
<rect shape-rendering="optimizeSpeed"  x="84" y="84" width="3" height="3" fill="black" />
<rect shape-rendering="optimizeSpeed"  x="90" y="84" width="3" height="3" fill="black" />
<rect shape-rendering="optimizeSpeed"  x="6" y="87" width="3" height="3" fill="black" />
<rect shape-rendering="optimizeSpeed"  x="24" y="87" width="3" height="3" fill="black" />
<rect shape-rendering="optimizeSpeed"  x="30" y="87" width="3" height="3" fill="black" />
<rect shape-rendering="optimizeSpeed"  x="39" y="87" width="3" height="3" fill="black" />
<rect shape-rendering="optimizeSpeed"  x="48" y="87" width="3" height="3" fill="black" />
<rect shape-rendering="optimizeSpeed"  x="54" y="87" width="3" height="3" fill="black" />
<rect shape-rendering="optimizeSpeed"  x="66" y="87" width="3" height="3" fill="black" />
<rect shape-rendering="optimizeSpeed"  x="69" y="87" width="3" height="3" fill="black" />
<rect shape-rendering="optimizeSpeed"  x="78" y="87" width="3" height="3" fill="black" />
<rect shape-rendering="optimizeSpeed"  x="81" y="87" width="3" height="3" fill="black" />
<rect shape-rendering="optimizeSpeed"  x="87" y="87" width="3" height="3" fill="black" />
<rect shape-rendering="optimizeSpeed"  x="6" y="90" width="3" height="3" fill="black" />
<rect shape-rendering="optimizeSpeed"  x="9" y="90" width="3" height="3" fill="black" />
<rect shape-rendering="optimizeSpeed"  x="12" y="90" width="3" height="3" fill="black" />
<rect shape-rendering="optimizeSpeed"  x="15" y="90" width="3" height="3" fill="black" />
<rect shape-rendering="optimizeSpeed"  x="18" y="90" width="3" height="3" fill="black" />
<rect shape-rendering="optimizeSpeed"  x="21" y="90" width="3" height="3" fill="black" />
<rect shape-rendering="optimizeSpeed"  x="24" y="90" width="3" height="3" fill="black" />
<rect shape-rendering="optimizeSpeed"  x="30" y="90" width="3" height="3" fill="black" />
<rect shape-rendering="optimizeSpeed"  x="33" y="90" width="3" height="3" fill="black" />
<rect shape-rendering="optimizeSpeed"  x="36" y="90" width="3" height="3" fill="black" />
<rect shape-rendering="optimizeSpeed"  x="48" y="90" width="3" height="3" fill="black" />
<rect shape-rendering="optimizeSpeed"  x="51" y="90" width="3" height="3" fill="black" />
<rect shape-rendering="optimizeSpeed"  x="60" y="90" width="3" height="3" fill="black" />
<rect shape-rendering="optimizeSpeed"  x="63" y="90" width="3" height="3" fill="black" />
<rect shape-rendering="optimizeSpeed"  x="66" y="90" width="3" height="3" fill="black" />
<rect shape-rendering="optimizeSpeed"  x="72" y="90" width="3" height="3" fill="black" />
<rect shape-rendering="optimizeSpeed"  x="81" y="90" width="3" height="3" fill="black" />
<rect shape-rendering="optimizeSpeed"  x="87" y="90" width="3" height="3" fill="black" /></svg>